Coordinates
version=1
nRows=7
nColumns=46
inDegrees=yes

Units are S.I. units (second, meters, Newtons, ...)
Angles are in degrees.

endheader
time	pelvis_tilt	pelvis_list	pelvis_rotation	pelvis_tx	pelvis_ty	pelvis_tz	bb_angle	bb_tx	bb_ty	bb_tz	hip_flexion_r	hip_adduction_r	hip_rotation_r	knee_angle_r	knee_angle_r_beta	ankle_angle_r	subtalar_angle_r	mtp_angle_r	crank_angle_r	hip_flexion_l	hip_adduction_l	hip_rotation_l	knee_angle_l	knee_angle_l_beta	ankle_angle_l	subtalar_angle_l	mtp_angle_l	crank_angle_l	lumbar_extension	lumbar_bending	lumbar_rotation	arm_flex_r	arm_add_r	arm_rot_r	elbow_flex_r	pro_sup_r	wrist_flex_r	wrist_dev_r	arm_flex_l	arm_add_l	arm_rot_l	elbow_flex_l	pro_sup_l	wrist_flex_l	wrist_dev_l
      0.00000000	    -39.19646819	     -2.57124380	     -0.25955399	      0.08867369	      0.97477931	     -0.22078542	      0.00000000	      0.50000000	      0.00000000	      0.25000000	     98.17388165	     -6.63942062	     -3.45883476	     70.67811519	      1.23356582	      2.92454201	     -4.04464376	      0.00000000	      0.00000000	     81.76990652	     -9.02412296	      2.36416781	     89.35090549	      1.55946749	      3.88324968	    -10.50071304	      0.00000000	      0.00000000	    -18.24256600	      4.21089214	     -0.08472527	     80.96230660	     -6.37107683	     54.69595868	     22.84690914	     46.95839182	      0.00000000	      0.00000000	     76.96038531	    -17.77350477	     52.42675219	     32.54422040	     46.75867353	      0.00000000	      0.00000000
      0.00500000	    -39.19089388	     -2.56963430	     -0.26321979	      0.08861940	      0.97469292	     -0.22077383	      0.00000000	      0.50000000	      0.00000000	      0.25000000	     98.18963480	     -6.66928790	     -3.51183498	     70.69641176	      1.23388515	      2.88561148	     -4.06001851	      0.00000000	      0.00000000	     81.78160648	     -9.02448903	      2.36569794	     89.36619510	      1.55973434	      3.84099323	    -10.54044627	      0.00000000	      0.00000000	    -18.27131801	      4.20310523	     -0.13331694	     81.14011369	     -6.72557106	     56.19946843	     23.16925939	     47.14934621	      0.00000000	      0.00000000	     77.24945940	    -18.47601497	     54.46006505	     33.21829777	     46.94832910	      0.00000000	      0.00000000
      0.01000000	    -39.22752386	     -2.61461537	     -0.31144187	      0.08864919	      0.97471524	     -0.22067574	      0.00000000	      0.50000000	      0.00000000	      0.25000000	     98.20772163	     -6.60922198	     -3.57993273	     70.66780504	      1.23338587	      2.75529545	     -4.31578963	      0.00000000	      0.00000000	     81.82291583	     -9.09288483	      2.39879699	     89.35013690	      1.55945408	      3.77364620	    -10.59098224	      0.00000000	      0.00000000	    -18.20520427	      4.24140215	     -0.02542068	     80.75220044	     -6.03574862	     52.86429348	     22.85297411	     46.37192248	      0.00000000	      0.00000000	     76.80239670	    -17.63933801	     51.74698902	     32.67215915	     46.14227925	      0.00000000	      0.00000000
      0.01500000	    -39.21481847	     -2.54551403	     -0.32913270	      0.08882616	      0.97476389	     -0.22098608	      0.00000000	      0.50000000	      0.00000000	      0.25000000	     98.22457932	     -6.64261510	     -3.48345486	     70.72199630	      1.23433169	      2.90798352	     -3.95620611	      0.00000000	      0.00000000	     81.75372920	     -9.05757462	      2.31107367	     89.32740165	      1.55905727	      3.82014453	    -10.54696027	      0.00000000	      0.00000000	    -18.23093385	      4.20218958	     -0.07576372	     80.98102364	     -6.50451882	     55.19876247	     23.06909263	     46.68863880	      0.00000000	      0.00000000	     77.28214246	    -18.31719466	     54.73946899	     32.92099463	     46.37963406	      0.00000000	      0.00000000
      0.02000000	    -39.21856908	     -2.64795630	     -0.39919846	      0.08873849	      0.97438647	     -0.22079529	      0.00000000	      0.50000000	      0.00000000	      0.25000000	     98.25879983	     -6.54925140	     -3.54181467	     70.78231300	      1.23538441	      2.87076748	     -3.98500203	      0.00000000	      0.00000000	     81.74184086	     -9.15244323	      2.42353350	     89.27425426	      1.55812967	      3.78691347	    -10.57818056	      0.00000000	      0.00000000	    -18.22843143	      4.28058644	      0.03533035	     81.12770006	     -6.77288587	     56.65958985	     22.98782910	     47.09615084	      0.00000000	      0.00000000	     77.22678285	    -18.12313136	     54.26032094	     32.78026928	     46.34418577	      0.00000000	      0.00000000
      0.02500000	    -39.21869426	     -2.66476934	     -0.42627157	      0.08874368	      0.97435341	     -0.22074556	      0.00000000	      0.50000000	      0.00000000	      0.25000000	     98.27755996	     -6.53400792	     -3.57794108	     70.80713615	      1.23581766	      2.89891513	     -3.91779997	      0.00000000	      0.00000000	     81.73606774	     -9.18352379	      2.43698156	     89.26411213	      1.55795266	      3.75871394	    -10.53694487	      0.00000000	      0.00000000	    -18.19897625	      4.31126895	      0.08196774	     80.88813265	     -6.14324772	     54.29361554	     22.53829559	     46.33265692	      0.00000000	      0.00000000	     76.87329838	    -17.54894394	     52.12096446	     32.41094917	     45.70984238	      0.00000000	      0.00000000
      0.03000000	    -39.20650332	     -2.67103923	     -0.43034478	      0.08871676	      0.97433087	     -0.22071740	      0.00000000	      0.50000000	      0.00000000	      0.25000000	     98.28523707	     -6.52815578	     -3.58417334	     70.83568638	      1.23631596	      2.88001002	     -3.94671543	      0.00000000	      0.00000000	     81.73045195	     -9.20006665	      2.43315076	     89.26072950	      1.55789362	      3.73418262	    -10.54129312	      0.00000000	      0.00000000	    -18.24013429	      4.30156342	      0.05650149	     81.11523952	     -6.71399847	     56.57258090	     22.98142327	     46.85251372	      0.00000000	      0.00000000	     77.21032578	    -18.24056246	     54.36601862	     32.97315586	     46.12768924	      0.00000000	      0.00000000
